<?xml version="1.0" encoding="UTF-8"?>
<!DOCTYPE svg PUBLIC "-//W3C//DTD SVG 1.1//EN" "http://www.w3.org/Graphics/SVG/1.1/DTD/svg11.dtd">
<svg xmlns="http://www.w3.org/2000/svg" version="1.1" width="799px" height="418px" style="shape-rendering:geometricPrecision; text-rendering:geometricPrecision; image-rendering:optimizeQuality; fill-rule:evenodd; clip-rule:evenodd" xmlns:xlink="http://www.w3.org/1999/xlink">
<g><path style="opacity:1" fill="#0b5bfd" d="M 470.5,110.5 C 474.319,110.605 477.986,111.438 481.5,113C 485.633,116.131 489.466,119.631 493,123.5C 494.277,136.431 494.943,149.431 495,162.5C 512.314,149.952 531.147,147.119 551.5,154C 556.934,157.468 562.101,161.301 567,165.5C 567.663,162.131 567.496,158.797 566.5,155.5C 569.118,150.046 571.285,144.38 573,138.5C 576.955,132.877 581.288,127.543 586,122.5C 588.205,119.96 590.705,117.793 593.5,116C 599.506,114.534 605.339,112.701 611,110.5C 621.386,112.111 631.553,114.611 641.5,118C 644.717,121.517 648.217,124.684 652,127.5C 654.092,130.681 656.425,133.681 659,136.5C 660.549,141.717 662.549,146.717 665,151.5C 665.287,157.024 665.787,162.524 666.5,168C 664.107,174.715 661.274,181.215 658,187.5C 652.48,193.685 646.313,199.185 639.5,204C 633.255,205.181 627.422,207.348 622,210.5C 617.218,211.603 612.385,212.436 607.5,213C 600.585,218.871 593.252,219.538 585.5,215C 582.865,213.039 581.031,210.539 580,207.5C 574.776,211.723 569.276,215.556 563.5,219C 568.294,220.929 572.461,223.762 576,227.5C 579.597,236.664 579.263,245.664 575,254.5C 570.867,257.631 567.034,261.131 563.5,265C 557.674,267.217 552.008,269.717 546.5,272.5C 545.914,272.291 545.414,271.957 545,271.5C 538.272,273.248 531.439,274.581 524.5,275.5C 519.018,272.122 513.018,269.955 506.5,269C 502.311,265.31 497.978,261.81 493.5,258.5C 488.874,268.678 480.874,273.178 469.5,272C 464.068,284.103 455.735,293.77 444.5,301C 426.356,307.823 408.023,308.323 389.5,302.5C 388.558,302.608 387.725,302.941 387,303.5C 380.498,300.345 374.498,296.345 369,291.5C 365.135,285.405 362.968,278.738 362.5,271.5C 344.05,271.545 335.216,262.212 336,243.5C 334.966,229.519 334.299,215.519 334,201.5C 329.681,196.55 325.015,196.217 320,200.5C 319.667,215.833 319.333,231.167 319,246.5C 317.208,251.367 315.875,256.367 315,261.5C 312.257,266.581 308.09,269.747 302.5,271C 295.461,271.34 288.628,270.84 282,269.5C 273.571,273.016 265.238,273.016 257,269.5C 239.305,275.933 227.305,270.267 221,252.5C 220.399,242.158 220.566,231.824 221.5,221.5C 221.11,214.825 220.61,208.158 220,201.5C 219.057,199.046 217.224,198.046 214.5,198.5C 211.185,197.984 209.018,199.317 208,202.5C 207.535,221.174 206.868,239.841 206,258.5C 203.873,266.295 198.873,270.962 191,272.5C 173.389,274.536 163.055,266.87 160,249.5C 160.526,232.184 160.526,214.851 160,197.5C 159.261,196.426 158.261,195.759 157,195.5C 154.5,196.333 152,197.167 149.5,198C 148.809,199.067 148.309,200.234 148,201.5C 147.667,219.167 147.333,236.833 147,254.5C 142.268,268.865 132.435,274.365 117.5,271C 109.849,270.007 104.516,266.007 101.5,259C 102.127,257.262 102.46,255.429 102.5,253.5C 99.6885,231.805 99.8552,210.138 103,188.5C 104.393,184.714 106.059,181.048 108,177.5C 114.857,169.644 122.024,162.144 129.5,155C 142.987,150.052 156.654,149.386 170.5,153C 174.506,156.005 178.84,158.505 183.5,160.5C 185.818,159.051 187.818,157.218 189.5,155C 205.833,149 222.167,149 238.5,155C 241.333,157.833 244.167,160.667 247,163.5C 248.833,161.667 250.667,159.833 252.5,158C 250,155.5 247.5,153 245,150.5C 243.98,146.598 242.48,142.932 240.5,139.5C 242.662,134.208 244.829,128.875 247,123.5C 266.337,105.053 281.67,107.72 293,131.5C 293.667,136.5 293.667,141.5 293,146.5C 292.482,149.023 291.148,151.023 289,152.5C 288.73,155.224 288.23,157.891 287.5,160.5C 288.248,162.332 289.248,163.999 290.5,165.5C 291.898,163.203 293.564,161.037 295.5,159C 304.505,153.359 314.338,150.859 325,151.5C 342.713,151.193 357.046,157.86 368,171.5C 380.3,156.262 396.134,149.096 415.5,150C 422.099,151.811 428.433,154.311 434.5,157.5C 439.187,154.469 443.854,151.469 448.5,148.5C 448.167,147.833 447.833,147.167 447.5,146.5C 448.292,140.551 448.792,134.551 449,128.5C 453.331,118.994 460.498,112.994 470.5,110.5 Z M 591.5,161.5 C 595.919,163.562 596.419,166.229 593,169.5C 591.748,166.986 591.248,164.32 591.5,161.5 Z M 642.5,163.5 C 643.712,165.264 643.379,166.93 641.5,168.5C 641.167,168.333 640.833,168.167 640.5,168C 641.582,166.67 642.249,165.17 642.5,163.5 Z M 582.5,194.5 C 584.34,196.168 586.34,197.668 588.5,199C 586.552,199.983 584.718,201.15 583,202.5C 582.503,199.854 582.336,197.187 582.5,194.5 Z"/></g>
<g><path style="opacity:1" fill="#ebf0f9" d="M 518.5,159.5 C 528.514,159.501 538.514,159.834 548.5,160.5C 554.099,164.646 559.766,168.812 565.5,173C 574.049,180.712 576.883,190.212 574,201.5C 571.584,204.088 569.084,206.422 566.5,208.5C 557.534,211.655 548.868,215.321 540.5,219.5C 532.586,222.457 524.919,225.957 517.5,230C 519.063,231.947 521.063,233.114 523.5,233.5C 528.49,234.805 533.49,234.638 538.5,233C 542.261,230.235 546.261,227.902 550.5,226C 555.844,224.981 560.844,225.814 565.5,228.5C 566.458,229.962 567.624,231.295 569,232.5C 569.499,237.489 569.666,242.489 569.5,247.5C 562.974,253.518 555.974,259.018 548.5,264C 540.672,264.124 533.006,265.291 525.5,267.5C 520.181,264.86 514.514,263.027 508.5,262C 502.293,256.125 495.793,250.625 489,245.5C 487.922,252.829 484.422,258.662 478.5,263C 477.552,263.483 476.552,263.649 475.5,263.5C 467.675,264.956 461.841,262.289 458,255.5C 457.178,212.459 457.344,169.459 458.5,126.5C 460.568,123.099 463.568,120.599 467.5,119C 471.152,118.501 474.818,118.335 478.5,118.5C 478.5,119.5 478.5,120.5 478.5,121.5C 481.984,122.469 484.817,124.469 487,127.5C 487.74,143.37 487.24,159.203 485.5,175C 485.833,176.833 486.167,178.667 486.5,180.5C 491.5,175.667 496.5,170.833 501.5,166C 506.993,163.248 512.66,161.082 518.5,159.5 Z"/></g>
<g><path style="opacity:1" fill="#abc1ef" d="M 655.5,151.5 C 656.989,154.704 657.989,158.037 658.5,161.5C 658.665,165.182 658.499,168.848 658,172.5C 654.695,175.095 652.361,178.429 651,182.5C 646.984,186.348 643.151,190.348 639.5,194.5C 630.392,197.199 621.392,200.366 612.5,204C 605.694,204.435 599.528,206.602 594,210.5C 587.338,209.215 587.004,207.215 593,204.5C 595.136,201.763 596.136,198.763 596,195.5C 591.752,193.257 588.086,190.257 585,186.5C 582.894,181.944 580.061,177.944 576.5,174.5C 576.844,168.902 576.178,163.568 574.5,158.5C 575.979,151.596 578.146,144.929 581,138.5C 585.534,134.301 589.701,129.801 593.5,125C 599.754,122.125 606.254,119.958 613,118.5C 624.324,119.112 634.49,122.612 643.5,129C 650.637,135.119 654.637,142.619 655.5,151.5 Z M 591.5,161.5 C 591.248,164.32 591.748,166.986 593,169.5C 596.419,166.229 595.919,163.562 591.5,161.5 Z M 642.5,163.5 C 642.249,165.17 641.582,166.67 640.5,168C 640.833,168.167 641.167,168.333 641.5,168.5C 643.379,166.93 643.712,165.264 642.5,163.5 Z"/></g>
<g><path style="opacity:1" fill="#dce6f8" d="M 285.5,131.5 C 285.666,135.846 285.499,140.179 285,144.5C 282.78,148.079 279.947,151.079 276.5,153.5C 277.313,154.814 278.313,155.981 279.5,157C 277.167,157.667 274.833,157.667 272.5,157C 269.92,155.856 267.253,155.022 264.5,154.5C 262.821,154.108 261.154,153.608 259.5,153C 255.631,149.466 252.131,145.633 249,141.5C 249.728,126.441 257.728,118.775 273,118.5C 278.691,121.358 282.858,125.691 285.5,131.5 Z"/></g>
<g><path style="opacity:1" fill="#0e5cfe" d="M 638.5,185.5 C 637.624,185.631 636.957,185.298 636.5,184.5C 638.225,182.043 638.725,179.377 638,176.5C 636.285,173.565 634.452,170.732 632.5,168C 638.95,159.638 639.95,150.804 635.5,141.5C 635.5,140.833 635.167,140.5 634.5,140.5C 632.275,137.111 629.275,134.611 625.5,133C 605.404,129.764 596.237,138.264 598,158.5C 598.816,159.823 599.983,160.489 601.5,160.5C 602.048,162.394 603.048,164.06 604.5,165.5C 602.962,167.243 601.962,169.243 601.5,171.5C 599.386,172.445 597.719,173.945 596.5,176C 597.393,180.028 599.393,183.362 602.5,186C 611.058,187.441 619.724,187.941 628.5,187.5C 628.5,188.833 628.5,190.167 628.5,191.5C 624.404,191.363 621.071,192.863 618.5,196C 614.242,197.432 609.909,198.099 605.5,198C 607.637,195.821 607.971,193.321 606.5,190.5C 601.52,188.452 596.686,186.119 592,183.5C 590.87,179.69 588.87,176.357 586,173.5C 584.503,165.221 584.169,156.888 585,148.5C 588.553,144.721 591.053,140.388 592.5,135.5C 595.5,134.833 598.5,134.167 601.5,133.5C 601.5,132.167 601.5,130.833 601.5,129.5C 606.605,129.57 611.605,128.904 616.5,127.5C 621.779,128.653 627.112,129.486 632.5,130C 634.199,133.705 637.033,135.872 641,136.5C 642.173,140.337 644.173,143.671 647,146.5C 647.495,148.473 647.662,150.473 647.5,152.5C 648.5,152.5 649.5,152.5 650.5,152.5C 650.666,157.844 650.499,163.177 650,168.5C 647.473,172.221 645.473,176.221 644,180.5C 642.296,182.373 640.463,184.04 638.5,185.5 Z M 591.5,161.5 C 591.248,164.32 591.748,166.986 593,169.5C 596.419,166.229 595.919,163.562 591.5,161.5 Z M 642.5,163.5 C 642.249,165.17 641.582,166.67 640.5,168C 640.833,168.167 641.167,168.333 641.5,168.5C 643.379,166.93 643.712,165.264 642.5,163.5 Z"/></g>
<g><path style="opacity:1" fill="#a5b4de" d="M 634.5,140.5 C 630.993,140.08 627.659,139.08 624.5,137.5C 620.019,136.352 615.352,136.185 610.5,137C 607.42,139.29 604.253,141.457 601,143.5C 600.215,149.249 600.382,154.916 601.5,160.5C 599.983,160.489 598.816,159.823 598,158.5C 596.237,138.264 605.404,129.764 625.5,133C 629.275,134.611 632.275,137.111 634.5,140.5 Z"/></g>
<g><path style="opacity:0.996" fill="#c23329" d="M 624.5,137.5 C 630.878,142.597 633.712,149.263 633,157.5C 630.002,160.83 627.502,164.496 625.5,168.5C 626.282,171.076 627.782,173.076 630,174.5C 630.497,176.81 630.663,179.143 630.5,181.5C 622.915,182.981 615.248,183.648 607.5,183.5C 605.785,181.079 604.952,178.413 605,175.5C 611.229,168.275 617.063,160.775 622.5,153C 621.667,150.833 620.167,149.333 618,148.5C 613.38,150.492 609.38,153.158 606,156.5C 604.674,156.245 603.674,155.578 603,154.5C 602.333,152.167 602.333,149.833 603,147.5C 606.175,144.657 609.009,141.49 611.5,138C 615.821,137.501 620.154,137.334 624.5,137.5 Z"/></g>
<g><path style="opacity:1" fill="#a48297" d="M 624.5,137.5 C 620.154,137.334 615.821,137.501 611.5,138C 609.009,141.49 606.175,144.657 603,147.5C 602.333,149.833 602.333,152.167 603,154.5C 603.674,155.578 604.674,156.245 606,156.5C 609.38,153.158 613.38,150.492 618,148.5C 620.167,149.333 621.667,150.833 622.5,153C 617.063,160.775 611.229,168.275 605,175.5C 604.952,178.413 605.785,181.079 607.5,183.5C 605.742,183.123 604.075,182.456 602.5,181.5C 601.513,178.232 601.18,174.898 601.5,171.5C 604.812,169.521 607.479,166.855 609.5,163.5C 607.083,161.893 604.416,160.893 601.5,160.5C 600.382,154.916 600.215,149.249 601,143.5C 604.253,141.457 607.42,139.29 610.5,137C 615.352,136.185 620.019,136.352 624.5,137.5 Z"/></g>
<g><path style="opacity:1" fill="#558cf6" d="M 655.5,151.5 C 656.5,151.5 657.5,151.5 658.5,151.5C 658.5,154.833 658.5,158.167 658.5,161.5C 657.989,158.037 656.989,154.704 655.5,151.5 Z"/></g>
<g><path style="opacity:1" fill="#2f60dc" d="M 285.5,131.5 C 286.65,136.316 286.816,141.316 286,146.5C 282.021,149.91 280.521,154.243 281.5,159.5C 276.421,159.782 276.254,160.782 281,162.5C 283.035,165.561 284.201,168.895 284.5,172.5C 281.77,166.601 277.437,162.101 271.5,159C 269.071,158.297 266.738,158.463 264.5,159.5C 264.5,157.833 264.5,156.167 264.5,154.5C 267.253,155.022 269.92,155.856 272.5,157C 274.833,157.667 277.167,157.667 279.5,157C 278.313,155.981 277.313,154.814 276.5,153.5C 279.947,151.079 282.78,148.079 285,144.5C 285.499,140.179 285.666,135.846 285.5,131.5 Z"/></g>
<g><path style="opacity:1" fill="#3168e3" d="M 235.5,163.5 C 221.127,158.241 206.793,158.241 192.5,163.5C 192.5,162.5 192.5,161.5 192.5,160.5C 206.827,156.501 221.16,156.501 235.5,160.5C 235.5,161.5 235.5,162.5 235.5,163.5 Z"/></g>
<g><path style="opacity:1" fill="#eaeff8" d="M 451.5,159.5 C 453.391,190.612 454.558,221.946 455,253.5C 457.226,257.039 459.393,260.539 461.5,264C 460.856,268.419 459.522,272.585 457.5,276.5C 453.897,281.442 449.897,286.108 445.5,290.5C 441.122,291.523 437.122,293.356 433.5,296C 417.769,299.41 402.103,299.077 386.5,295C 384.214,290.523 380.547,288.69 375.5,289.5C 374.85,285.86 373.35,282.527 371,279.5C 369.268,272.84 370.768,267.174 375.5,262.5C 376.71,262.068 377.71,261.401 378.5,260.5C 382.833,260.5 387.167,260.5 391.5,260.5C 391.56,261.043 391.893,261.376 392.5,261.5C 393.429,260.311 393.762,258.978 393.5,257.5C 387.833,257.5 382.167,257.5 376.5,257.5C 376.5,258.5 376.5,259.5 376.5,260.5C 375.5,260.5 374.5,260.5 373.5,260.5C 373.5,257.167 373.5,253.833 373.5,250.5C 374.451,249.081 374.784,247.415 374.5,245.5C 374.577,244.25 375.244,243.417 376.5,243C 373.821,236.985 370.321,231.485 366,226.5C 367.068,231.302 369.234,235.636 372.5,239.5C 372.5,243.167 372.5,246.833 372.5,250.5C 369.762,263.306 362.096,267.306 349.5,262.5C 346.495,259.836 344.662,256.503 344,252.5C 342.311,234.209 341.311,215.876 341,197.5C 339.989,196.663 338.822,196.33 337.5,196.5C 337.256,193.737 335.923,191.571 333.5,190C 325.834,188.267 319,189.767 313,194.5C 311.706,212.434 311.04,230.434 311,248.5C 309.249,250.49 308.249,252.823 308,255.5C 306.939,258.562 305.106,261.062 302.5,263C 295.914,263.912 289.581,263.412 283.5,261.5C 283.326,259.139 282.993,256.806 282.5,254.5C 282.111,241.997 281.445,229.664 280.5,217.5C 280.666,212.156 280.499,206.823 280,201.5C 278.77,208.445 278.27,215.445 278.5,222.5C 277.834,227.489 277.501,232.656 277.5,238C 277.677,244.601 278.343,251.101 279.5,257.5C 278.969,259.624 277.635,261.124 275.5,262C 271.94,263.237 268.273,263.737 264.5,263.5C 263.5,263.5 262.5,263.5 261.5,263.5C 258.447,260.61 255.947,257.276 254,253.5C 253.338,224.16 253.505,194.827 254.5,165.5C 257.161,162.498 260.495,160.498 264.5,159.5C 266.738,158.463 269.071,158.297 271.5,159C 277.437,162.101 281.77,166.601 284.5,172.5C 284.337,174.857 284.503,177.19 285,179.5C 291.364,175.97 296.197,170.97 299.5,164.5C 302.5,163 305.5,161.5 308.5,160C 319.865,159.241 331.199,159.575 342.5,161C 353.719,164.888 361.719,172.222 366.5,183C 365.507,185.453 365.34,187.953 366,190.5C 367.369,186.333 369.036,182.333 371,178.5C 375.167,174.333 379.333,170.167 383.5,166C 388.167,163.333 392.833,160.667 397.5,158C 404.833,157.333 412.167,157.333 419.5,158C 425.641,160.668 431.641,163.501 437.5,166.5C 437.5,165.5 437.5,164.5 437.5,163.5C 438.552,163.649 439.552,163.483 440.5,163C 442.571,160.551 445.071,158.718 448,157.5C 449.434,157.862 450.601,158.528 451.5,159.5 Z"/></g>
<g><path style="opacity:1" fill="#3569dd" d="M 548.5,160.5 C 538.514,159.834 528.514,159.501 518.5,159.5C 519.263,158.732 520.263,158.232 521.5,158C 530.847,156.793 539.847,157.626 548.5,160.5 Z"/></g>
<g><path style="opacity:1" fill="#2963dc" d="M 166.5,159.5 C 154.54,158.622 142.873,159.956 131.5,163.5C 131.414,162.504 131.748,161.671 132.5,161C 143.87,157.244 155.203,156.744 166.5,159.5 Z"/></g>
<g><path style="opacity:1" fill="#ecf1fb" d="M 166.5,159.5 C 172.305,162.391 178.138,165.391 184,168.5C 186.927,166.955 189.76,165.288 192.5,163.5C 206.793,158.241 221.127,158.241 235.5,163.5C 238.74,165.392 241.74,167.726 244.5,170.5C 246.127,172.63 247.96,174.63 250,176.5C 250.296,202.51 250.963,228.51 252,254.5C 254.023,256.769 254.856,259.436 254.5,262.5C 249.203,263.275 243.87,263.608 238.5,263.5C 235.308,261.828 232.475,259.495 230,256.5C 228.983,239.848 228.483,223.181 228.5,206.5C 228.5,203.5 228.5,200.5 228.5,197.5C 227.5,197.5 226.5,197.5 225.5,197.5C 225.768,195.901 225.434,194.568 224.5,193.5C 220.219,188.816 214.885,187.316 208.5,189C 204.333,190.5 201.5,193.333 200,197.5C 199.208,216.829 198.542,236.162 198,255.5C 196.335,259.32 193.835,262.32 190.5,264.5C 185.838,264.038 181.171,263.538 176.5,263C 174.983,261.315 173.316,259.815 171.5,258.5C 170.915,256.135 169.748,254.135 168,252.5C 167.667,233.5 167.333,214.5 167,195.5C 160.974,186.755 153.474,185.255 144.5,191C 142.106,192.952 140.606,195.452 140,198.5C 139.501,204.491 139.334,210.491 139.5,216.5C 139.13,230.235 138.13,243.902 136.5,257.5C 135.833,257.5 135.5,257.833 135.5,258.5C 134.596,259.209 134.263,260.209 134.5,261.5C 129.008,263.188 123.341,263.855 117.5,263.5C 116.185,262.524 114.852,261.524 113.5,260.5C 112.28,261.711 111.113,261.711 110,260.5C 108.121,236.492 108.121,212.492 110,188.5C 115.538,178.793 122.704,170.46 131.5,163.5C 142.873,159.956 154.54,158.622 166.5,159.5 Z"/></g>
<g><path style="opacity:1" fill="#a96c7a" d="M 624.5,137.5 C 627.659,139.08 630.993,140.08 634.5,140.5C 635.167,140.5 635.5,140.833 635.5,141.5C 634.722,142.156 634.056,142.989 633.5,144C 634.586,148.792 634.753,153.625 634,158.5C 632.285,161.268 631.118,164.268 630.5,167.5C 630.967,170.148 632.134,172.481 634,174.5C 634.755,177.303 634.422,179.97 633,182.5C 627.986,183.979 622.819,184.646 617.5,184.5C 613.982,184.498 610.649,184.165 607.5,183.5C 615.248,183.648 622.915,182.981 630.5,181.5C 630.663,179.143 630.497,176.81 630,174.5C 627.782,173.076 626.282,171.076 625.5,168.5C 627.502,164.496 630.002,160.83 633,157.5C 633.712,149.263 630.878,142.597 624.5,137.5 Z"/></g>
<g><path style="opacity:1" fill="#aabde9" d="M 601.5,160.5 C 604.416,160.893 607.083,161.893 609.5,163.5C 607.479,166.855 604.812,169.521 601.5,171.5C 601.962,169.243 602.962,167.243 604.5,165.5C 603.048,164.06 602.048,162.394 601.5,160.5 Z"/></g>
<g><path style="opacity:1" fill="#2a5dca" d="M 574.5,158.5 C 576.178,163.568 576.844,168.902 576.5,174.5C 575.883,174.389 575.383,174.056 575,173.5C 574.501,168.511 574.334,163.511 574.5,158.5 Z"/></g>
<g><path style="opacity:1" fill="#406ee6" d="M 458.5,126.5 C 457.344,169.459 457.178,212.459 458,255.5C 461.841,262.289 467.675,264.956 475.5,263.5C 472.014,264.533 468.347,265.367 464.5,266C 462.357,268.758 461.19,271.924 461,275.5C 459.989,276.337 458.822,276.67 457.5,276.5C 459.522,272.585 460.856,268.419 461.5,264C 459.393,260.539 457.226,257.039 455,253.5C 454.558,221.946 453.391,190.612 451.5,159.5C 452.822,159.67 453.989,159.337 455,158.5C 454.817,148.578 455.15,138.578 456,128.5C 456.417,127.244 457.25,126.577 458.5,126.5 Z"/></g>
<g><path style="opacity:1" fill="#2c54b7" d="M 254.5,165.5 C 253.505,194.827 253.338,224.16 254,253.5C 255.947,257.276 258.447,260.61 261.5,263.5C 259.194,263.007 256.861,262.674 254.5,262.5C 254.856,259.436 254.023,256.769 252,254.5C 250.963,228.51 250.296,202.51 250,176.5C 247.96,174.63 246.127,172.63 244.5,170.5C 246.094,170.92 247.594,171.586 249,172.5C 251.811,170.851 253.644,168.517 254.5,165.5 Z"/></g>
<g><path style="opacity:1" fill="#a5add4" d="M 635.5,141.5 C 639.95,150.804 638.95,159.638 632.5,168C 634.452,170.732 636.285,173.565 638,176.5C 638.725,179.377 638.225,182.043 636.5,184.5C 636.957,185.298 637.624,185.631 638.5,185.5C 635.635,186.783 632.635,186.783 629.5,185.5C 628.702,185.957 628.369,186.624 628.5,187.5C 619.724,187.941 611.058,187.441 602.5,186C 599.393,183.362 597.393,180.028 596.5,176C 597.719,173.945 599.386,172.445 601.5,171.5C 601.18,174.898 601.513,178.232 602.5,181.5C 604.075,182.456 605.742,183.123 607.5,183.5C 610.649,184.165 613.982,184.498 617.5,184.5C 622.819,184.646 627.986,183.979 633,182.5C 634.422,179.97 634.755,177.303 634,174.5C 632.134,172.481 630.967,170.148 630.5,167.5C 631.118,164.268 632.285,161.268 634,158.5C 634.753,153.625 634.586,148.792 633.5,144C 634.056,142.989 634.722,142.156 635.5,141.5 Z"/></g>
<g><path style="opacity:1" fill="#1e60fe" d="M 528.5,188.5 C 529.5,188.5 530.5,188.5 531.5,188.5C 531.5,189.5 531.5,190.5 531.5,191.5C 532.833,191.5 534.167,191.5 535.5,191.5C 536.239,191.369 536.906,191.536 537.5,192C 534.924,192.782 532.924,194.282 531.5,196.5C 524.832,197.68 518.499,199.68 512.5,202.5C 512.266,196.074 515.266,192.907 521.5,193C 522.056,192.617 522.389,192.117 522.5,191.5C 524.5,191.5 526.5,191.5 528.5,191.5C 528.5,190.5 528.5,189.5 528.5,188.5 Z"/></g>
<g><path style="opacity:1" fill="#76a3fb" d="M 528.5,188.5 C 528.5,189.5 528.5,190.5 528.5,191.5C 526.5,191.5 524.5,191.5 522.5,191.5C 524.639,190.842 526.639,189.842 528.5,188.5 Z"/></g>
<g><path style="opacity:1" fill="#79a5fb" d="M 528.5,188.5 C 529.568,187.566 530.901,187.232 532.5,187.5C 532.5,188.5 532.5,189.5 532.5,190.5C 533.791,190.263 534.791,190.596 535.5,191.5C 534.167,191.5 532.833,191.5 531.5,191.5C 531.5,190.5 531.5,189.5 531.5,188.5C 530.5,188.5 529.5,188.5 528.5,188.5 Z"/></g>
<g><path style="opacity:1" fill="#d2b9be" d="M 426.5,197.5 C 420.217,196.416 413.884,196.249 407.5,197C 406.667,197.833 405.833,198.667 405,199.5C 402.771,207.958 404.938,214.958 411.5,220.5C 409.435,220.483 407.435,220.15 405.5,219.5C 405.5,218.833 405.167,218.5 404.5,218.5C 402.733,216.062 401.399,213.395 400.5,210.5C 400.662,208.473 400.495,206.473 400,204.5C 399.29,203.027 398.124,202.36 396.5,202.5C 396.393,198.714 397.893,195.714 401,193.5C 401.044,195.76 400.211,197.76 398.5,199.5C 399.689,200.429 401.022,200.762 402.5,200.5C 402.297,198.61 402.963,197.11 404.5,196C 411.5,195.333 418.5,195.333 425.5,196C 426.056,196.383 426.389,196.883 426.5,197.5 Z"/></g>
<g><path style="opacity:0.996" fill="#b85047" d="M 426.5,197.5 C 430.144,201.808 430.477,206.474 427.5,211.5C 426.167,212.5 424.833,213.5 423.5,214.5C 424.314,209.881 424.647,205.214 424.5,200.5C 419.156,200.334 413.823,200.501 408.5,201C 404.756,209.598 407.422,215.098 416.5,217.5C 418.207,217.272 419.874,216.938 421.5,216.5C 419.547,219.978 416.547,221.645 412.5,221.5C 411.833,221.5 411.5,221.167 411.5,220.5C 404.938,214.958 402.771,207.958 405,199.5C 405.833,198.667 406.667,197.833 407.5,197C 413.884,196.249 420.217,196.416 426.5,197.5 Z"/></g>
<g><path style="opacity:1" fill="#6b9bfa" d="M 225.5,197.5 C 226.5,197.5 227.5,197.5 228.5,197.5C 228.5,200.5 228.5,203.5 228.5,206.5C 227.965,203.366 226.965,200.366 225.5,197.5 Z"/></g>
<g><path style="opacity:1" fill="#cb3329" d="M 423.5,214.5 C 422.5,214.833 421.833,215.5 421.5,216.5C 419.874,216.938 418.207,217.272 416.5,217.5C 407.422,215.098 404.756,209.598 408.5,201C 413.823,200.501 419.156,200.334 424.5,200.5C 424.647,205.214 424.314,209.881 423.5,214.5 Z"/></g>
<g><path style="opacity:1" fill="#b7bfd7" d="M 398.5,208.5 C 397.742,213.271 399.075,217.271 402.5,220.5C 399.935,220.845 398.101,219.512 397,216.5C 396.833,215.167 396.667,213.833 396.5,212.5C 396.585,210.667 397.252,209.334 398.5,208.5 Z"/></g>
<g><path style="opacity:1" fill="#165efd" d="M 398.5,208.5 C 399.167,209.167 399.833,209.833 400.5,210.5C 401.399,213.395 402.733,216.062 404.5,218.5C 404.672,219.492 404.338,220.158 403.5,220.5C 403.167,220.5 402.833,220.5 402.5,220.5C 399.075,217.271 397.742,213.271 398.5,208.5 Z"/></g>
<g><path style="opacity:1" fill="#2b66fc" d="M 418.5,225.5 C 422.962,222.945 426.296,219.279 428.5,214.5C 430.691,213.155 432.025,211.155 432.5,208.5C 432.833,209 433.167,209.5 433.5,210C 431.437,216.643 427.77,222.143 422.5,226.5C 420.926,227.631 419.259,227.798 417.5,227C 418.056,226.617 418.389,226.117 418.5,225.5 Z"/></g>
<g><path style="opacity:1" fill="#d2c0c8" d="M 427.5,211.5 C 427.557,212.609 427.89,213.609 428.5,214.5C 426.296,219.279 422.962,222.945 418.5,225.5C 416.5,224.167 414.5,222.833 412.5,221.5C 416.547,221.645 419.547,219.978 421.5,216.5C 421.833,215.5 422.5,214.833 423.5,214.5C 424.833,213.5 426.167,212.5 427.5,211.5 Z"/></g>
<g><path style="opacity:1" fill="#3a6cf6" d="M 566.5,208.5 C 565.177,210.686 563.177,212.186 560.5,213C 554.079,216.05 547.412,218.217 540.5,219.5C 548.868,215.321 557.534,211.655 566.5,208.5 Z"/></g>
<g><path style="opacity:1" fill="#215cd8" d="M 280.5,217.5 C 280.098,226.835 279.598,236.168 279,245.5C 278.5,237.841 278.334,230.174 278.5,222.5C 278.27,215.445 278.77,208.445 280,201.5C 280.499,206.823 280.666,212.156 280.5,217.5 Z"/></g>
<g><path style="opacity:1" fill="#2f66f6" d="M 540.5,219.5 C 540.631,220.376 540.298,221.043 539.5,221.5C 534.5,224 529.5,226.5 524.5,229C 523.62,230.356 523.286,231.856 523.5,233.5C 521.063,233.114 519.063,231.947 517.5,230C 524.919,225.957 532.586,222.457 540.5,219.5 Z"/></g>
<g><path style="opacity:1" fill="#6e94f9" d="M 404.5,218.5 C 405.167,218.5 405.5,218.833 405.5,219.5C 406.141,220.482 406.807,221.482 407.5,222.5C 405.463,223.602 404.13,222.935 403.5,220.5C 404.338,220.158 404.672,219.492 404.5,218.5 Z"/></g>
<g><path style="opacity:1" fill="#3669ea" d="M 565.5,228.5 C 569.192,228.695 571.026,230.695 571,234.5C 571.667,238.5 571.667,242.5 571,246.5C 570.617,247.056 570.117,247.389 569.5,247.5C 569.666,242.489 569.499,237.489 569,232.5C 567.624,231.295 566.458,229.962 565.5,228.5 Z"/></g>
<g><path style="opacity:1" fill="#5c85da" d="M 280.5,217.5 C 281.445,229.664 282.111,241.997 282.5,254.5C 281.883,254.389 281.383,254.056 281,253.5C 280.79,255.058 280.29,256.391 279.5,257.5C 278.343,251.101 277.677,244.601 277.5,238C 277.501,232.656 277.834,227.489 278.5,222.5C 278.334,230.174 278.5,237.841 279,245.5C 279.598,236.168 280.098,226.835 280.5,217.5 Z"/></g>
<g><path style="opacity:1" fill="#356dfb" d="M 374.5,245.5 C 373.833,243.5 373.167,241.5 372.5,239.5C 369.234,235.636 367.068,231.302 366,226.5C 370.321,231.485 373.821,236.985 376.5,243C 375.244,243.417 374.577,244.25 374.5,245.5 Z"/></g>
<g><path style="opacity:1" fill="#8fb1fa" d="M 372.5,239.5 C 373.167,241.5 373.833,243.5 374.5,245.5C 374.784,247.415 374.451,249.081 373.5,250.5C 373.167,250.5 372.833,250.5 372.5,250.5C 372.5,246.833 372.5,243.167 372.5,239.5 Z"/></g>
<g><path style="opacity:1" fill="#325fc9" d="M 224.5,193.5 C 218.982,191.623 213.315,191.123 207.5,192C 204.727,194.383 202.561,197.217 201,200.5C 200.188,219.495 199.521,238.495 199,257.5C 197.999,262.686 195.166,265.019 190.5,264.5C 193.835,262.32 196.335,259.32 198,255.5C 198.542,236.162 199.208,216.829 200,197.5C 201.5,193.333 204.333,190.5 208.5,189C 214.885,187.316 220.219,188.816 224.5,193.5 Z"/></g>
<g><path style="opacity:1" fill="#709df2" d="M 139.5,216.5 C 139.5,230.167 139.5,243.833 139.5,257.5C 138.5,257.5 137.5,257.5 136.5,257.5C 138.13,243.902 139.13,230.235 139.5,216.5 Z"/></g>
<g><path style="opacity:1" fill="#2f68ed" d="M 400.5,254.5 C 399.432,255.434 398.099,255.768 396.5,255.5C 390.666,254.676 385.332,252.509 380.5,249C 384.797,249.134 388.797,250.467 392.5,253C 395.063,254.079 397.729,254.579 400.5,254.5 Z"/></g>
<g><path style="opacity:1" fill="#6e97f2" d="M 432.5,257.5 C 431.791,256.596 430.791,256.263 429.5,256.5C 429.5,256.167 429.5,255.833 429.5,255.5C 429.167,255.5 428.833,255.5 428.5,255.5C 428.5,254.5 428.5,253.5 428.5,252.5C 433.031,248.016 434.864,249.016 434,255.5C 433.722,256.416 433.222,257.082 432.5,257.5 Z"/></g>
<g><path style="opacity:1" fill="#ebf1f8" d="M 429.5,255.5 C 429.461,253.641 430.294,252.308 432,251.5C 432.49,252.793 432.657,254.127 432.5,255.5C 431.5,255.5 430.5,255.5 429.5,255.5 Z"/></g>
<g><path style="opacity:1" fill="#2a5ad2" d="M 282.5,254.5 C 282.993,256.806 283.326,259.139 283.5,261.5C 282.883,261.389 282.383,261.056 282,260.5C 280.786,262.049 279.286,263.215 277.5,264C 272.98,264.814 268.646,264.647 264.5,263.5C 268.273,263.737 271.94,263.237 275.5,262C 277.635,261.124 278.969,259.624 279.5,257.5C 280.29,256.391 280.79,255.058 281,253.5C 281.383,254.056 281.883,254.389 282.5,254.5 Z"/></g>
<g><path style="opacity:1" fill="#78a1f5" d="M 400.5,254.5 C 405.363,254.181 410.03,254.514 414.5,255.5C 409.968,255.182 405.634,255.515 401.5,256.5C 399.585,256.784 397.919,256.451 396.5,255.5C 398.099,255.768 399.432,255.434 400.5,254.5 Z"/></g>
<g><path style="opacity:1" fill="#2661ed" d="M 428.5,252.5 C 428.5,253.5 428.5,254.5 428.5,255.5C 419.521,256.266 410.521,256.599 401.5,256.5C 405.634,255.515 409.968,255.182 414.5,255.5C 419.262,254.868 423.929,253.868 428.5,252.5 Z"/></g>
<g><path style="opacity:1" fill="#3268ee" d="M 429.5,256.5 C 430.791,256.263 431.791,256.596 432.5,257.5C 427.487,268.453 426.487,268.12 429.5,256.5 Z"/></g>
<g><path style="opacity:1" fill="#789ce6" d="M 391.5,260.5 C 392.043,260.44 392.376,260.107 392.5,259.5C 387.5,258.167 382.5,258.167 377.5,259.5C 377.624,260.107 377.957,260.44 378.5,260.5C 377.71,261.401 376.71,262.068 375.5,262.5C 374.833,261.833 374.167,261.167 373.5,260.5C 374.5,260.5 375.5,260.5 376.5,260.5C 376.5,259.5 376.5,258.5 376.5,257.5C 382.167,257.5 387.833,257.5 393.5,257.5C 393.762,258.978 393.429,260.311 392.5,261.5C 391.893,261.376 391.56,261.043 391.5,260.5 Z"/></g>
<g><path style="opacity:1" fill="#2a5bca" d="M 391.5,260.5 C 387.167,260.5 382.833,260.5 378.5,260.5C 377.957,260.44 377.624,260.107 377.5,259.5C 382.5,258.167 387.5,258.167 392.5,259.5C 392.376,260.107 392.043,260.44 391.5,260.5 Z"/></g>
<g><path style="opacity:1" fill="#6791e9" d="M 135.5,258.5 C 135.677,260.981 134.677,262.814 132.5,264C 127.316,264.816 122.316,264.65 117.5,263.5C 123.341,263.855 129.008,263.188 134.5,261.5C 134.263,260.209 134.596,259.209 135.5,258.5 Z"/></g>
<g><path style="opacity:1" fill="#2554bc" d="M 254.5,262.5 C 251.644,264.006 248.477,264.672 245,264.5C 242.639,264.496 240.473,264.163 238.5,263.5C 243.87,263.608 249.203,263.275 254.5,262.5 Z"/></g>
<g><path style="opacity:1" fill="#497bf2" d="M 396.5,261.5 C 398.487,262.164 400.154,263.331 401.5,265C 398.632,265.64 396.965,264.473 396.5,261.5 Z"/></g>
<g><path style="opacity:1" fill="#1a5eed" d="M 411.5,268.5 C 411.5,269.167 411.167,269.5 410.5,269.5C 408.473,269.662 406.473,269.495 404.5,269C 403.289,268.107 403.289,267.274 404.5,266.5C 406.618,267.946 408.951,268.613 411.5,268.5 Z"/></g>
<g><path style="opacity:1" fill="#5c87f1" d="M 410.5,269.5 C 411.167,269.5 411.5,269.167 411.5,268.5C 415.848,268.091 420.181,267.924 424.5,268C 420.841,269.277 417.008,270.11 413,270.5C 411.93,270.472 411.097,270.139 410.5,269.5 Z"/></g>
</svg>
